<svg xmlns="http://www.w3.org/2000/svg" width="1000" height="1000" id="empty" style=""><g id="logo" transform="matrix(1,0,0,1,0,0)"><g id="brand" fill="#ffffff" transform="matrix(0.8939152917676129,0,0,0.8939152917676129,0,0)"><g transform="matrix(3,0,0,3,0,0)"><path id="text" transform="matrix(1 0 0 1 -7.488 68.16)" d="M64.09371146065848 151.21369931528398C63.64571146065849 150.76569931528397 63.421711460658486 150.22169931528398 63.421711460658486 149.58169931528397L63.421711460658486 86.98969931528397C63.421711460658486 86.28569931528398 63.64571146065849 85.72569931528398 64.09371146065848 85.30969931528398C64.54171146065849 84.89369931528397 65.08571146065849 84.68569931528397 65.72571146065849 84.68569931528397L74.74971146065849 84.68569931528397C75.45371146065848 84.68569931528397 76.01371146065848 84.89369931528397 76.42971146065848 85.30969931528398C76.84571146065849 85.72569931528398 77.05371146065849 86.28569931528398 77.05371146065849 86.98969931528397L77.05371146065849 149.58169931528397C77.05371146065849 150.22169931528398 76.84571146065849 150.76569931528397 76.42971146065848 151.21369931528398C76.01371146065848 151.66169931528398 75.45371146065848 151.88569931528397 74.74971146065849 151.88569931528397L65.72571146065849 151.88569931528397C65.08571146065849 151.88569931528397 64.54171146065849 151.66169931528398 64.09371146065848 151.21369931528398ZM97.78971146065848 150.68569931528398C94.52571146065848 149.24569931528399 92.10971146065849 147.54969931528396 90.54171146065849 145.59769931528396C88.97371146065848 143.64569931528396 88.18971146065849 141.96569931528398 88.18971146065849 140.55769931528397C88.18971146065849 139.91769931528398 88.41371146065848 139.40569931528398 88.86171146065848 139.02169931528397C89.30971146065849 138.63769931528398 89.82171146065849 138.44569931528397 90.39771146065848 138.44569931528397L97.98171146065849 138.44569931528397C98.55771146065848 138.44569931528397 99.03771146065849 138.66969931528396 99.42171146065849 139.11769931528397C99.67771146065849 139.30969931528398 100.34971146065848 139.88569931528397 101.43771146065848 140.84569931528398C102.52571146065848 141.86969931528398 103.80571146065849 142.66969931528396 105.27771146065848 143.24569931528396C106.74971146065849 143.82169931528398 108.3817114606585 144.10969931528396 110.1737114606585 144.10969931528396C112.73371146065848 144.10969931528396 114.84571146065849 143.59769931528396 116.50971146065848 142.57369931528396C118.1737114606585 141.54969931528396 119.00571146065849 140.14169931528397 119.00571146065849 138.34969931528397C119.00571146065849 137.00569931528398 118.6377114606585 135.91769931528398 117.90171146065849 135.08569931528396C117.16571146065849 134.25369931528397 115.83771146065848 133.501699315284 113.9177114606585 132.82969931528396C111.99771146065848 132.15769931528396 109.1497114606585 131.43769931528396 105.37371146065848 130.66969931528396C99.93371146065849 129.51769931528398 95.9177114606585 127.75769931528397 93.32571146065848 125.38969931528398C90.73371146065848 123.02169931528397 89.43771146065848 119.88569931528397 89.43771146065848 115.98169931528398C89.43771146065848 113.42169931528397 90.20571146065848 111.00569931528398 91.74171146065848 108.73369931528397C93.27771146065848 106.46169931528397 95.56571146065849 104.60569931528397 98.60571146065848 103.16569931528397C101.64571146065849 101.72569931528398 105.27771146065848 101.00569931528398 109.50171146065848 101.00569931528398C113.78971146065848 101.00569931528398 117.50171146065848 101.69369931528396 120.63771146065848 103.06969931528397C123.77371146065849 104.44569931528397 126.15771146065849 106.07769931528398 127.78971146065848 107.96569931528397C129.42171146065849 109.85369931528398 130.2377114606585 111.53369931528397 130.2377114606585 113.00569931528398C130.2377114606585 113.58169931528397 130.0297114606585 114.07769931528398 129.6137114606585 114.49369931528398C129.19771146065847 114.90969931528397 128.7017114606585 115.11769931528397 128.12571146065847 115.11769931528397L121.02171146065848 115.11769931528397C120.50971146065848 115.11769931528397 119.96571146065848 114.89369931528398 119.38971146065849 114.44569931528397C118.9417114606585 114.12569931528398 118.23771146065849 113.51769931528398 117.27771146065848 112.62169931528396C116.31771146065849 111.72569931528398 115.1977114606585 111.02169931528397 113.9177114606585 110.50969931528397C112.6377114606585 109.99769931528397 111.13371146065849 109.74169931528397 109.4057114606585 109.74169931528397C107.03771146065849 109.74169931528397 105.1977114606585 110.25369931528397 103.88571146065848 111.27769931528397C102.57371146065849 112.30169931528397 101.9177114606585 113.64569931528396 101.9177114606585 115.30969931528398C101.9177114606585 116.52569931528397 102.23771146065849 117.51769931528398 102.87771146065849 118.28569931528398C103.51771146065849 119.05369931528398 104.76571146065848 119.78969931528397 106.62171146065849 120.49369931528398C108.47771146065848 121.19769931528397 111.26171146065849 121.90169931528396 114.97371146065848 122.60569931528397C121.11771146065848 123.82169931528398 125.51771146065849 125.70969931528397 128.17371146065847 128.26969931528396C130.82971146065847 130.82969931528396 132.1577114606585 133.96569931528398 132.1577114606585 137.67769931528397C132.1577114606585 142.15769931528396 130.2057114606585 145.80569931528396 126.30171146065848 148.62169931528396C122.39771146065848 151.43769931528396 116.92571146065848 152.84569931528398 109.88571146065848 152.84569931528398C105.08571146065849 152.84569931528398 101.05371146065849 152.12569931528398 97.78971146065848 150.68569931528398ZM151.3097114606585 147.32569931528397C148.39771146065848 144.28569931528398 146.9417114606585 139.82169931528398 146.9417114606585 133.93369931528397L146.9417114606585 112.14169931528397L139.3577114606585 112.14169931528397C138.7177114606585 112.14169931528397 138.17371146065847 111.90169931528396 137.7257114606585 111.42169931528397C137.27771146065848 110.94169931528397 137.0537114606585 110.38169931528398 137.0537114606585 109.74169931528397L137.0537114606585 104.26969931528397C137.0537114606585 103.62969931528397 137.27771146065848 103.08569931528397 137.7257114606585 102.63769931528398C138.17371146065847 102.18969931528397 138.7177114606585 101.96569931528397 139.3577114606585 101.96569931528397L146.9417114606585 101.96569931528397L146.9417114606585 86.02969931528398C146.9417114606585 85.32569931528397 147.16571146065849 84.76569931528397 147.6137114606585 84.34969931528397C148.0617114606585 83.93369931528397 148.60571146065848 83.72569931528398 149.24571146065847 83.72569931528398L157.02171146065848 83.72569931528398C157.7257114606585 83.72569931528398 158.2857114606585 83.93369931528397 158.7017114606585 84.34969931528397C159.11771146065848 84.76569931528397 159.32571146065848 85.32569931528397 159.32571146065848 86.02969931528398L159.32571146065848 101.96569931528397L171.32571146065848 101.96569931528397C172.0297114606585 101.96569931528397 172.5897114606585 102.17369931528397 173.0057114606585 102.58969931528398C173.42171146065849 103.00569931528398 173.62971146065848 103.56569931528398 173.62971146065848 104.26969931528397L173.62971146065848 109.74169931528397C173.62971146065848 110.44569931528397 173.4057114606585 111.02169931528397 172.9577114606585 111.46969931528398C172.50971146065848 111.91769931528397 171.9657114606585 112.14169931528397 171.32571146065848 112.14169931528397L159.32571146065848 112.14169931528397L159.32571146065848 132.97369931528397C159.32571146065848 135.72569931528398 159.80571146065847 137.80569931528396 160.76571146065848 139.21369931528398C161.7257114606585 140.62169931528396 163.32571146065848 141.32569931528397 165.5657114606585 141.32569931528397L172.1897114606585 141.32569931528397C172.82971146065847 141.32569931528397 173.37371146065848 141.54969931528396 173.8217114606585 141.99769931528397C174.26971146065847 142.44569931528397 174.4937114606585 142.98969931528399 174.4937114606585 143.62969931528397L174.4937114606585 149.58169931528397C174.4937114606585 150.22169931528398 174.2857114606585 150.76569931528397 173.8697114606585 151.21369931528398C173.4537114606585 151.66169931528398 172.8937114606585 151.88569931528397 172.1897114606585 151.88569931528397L164.41371146065848 151.88569931528397C158.5897114606585 151.88569931528397 154.22171146065847 150.36569931528396 151.3097114606585 147.32569931528397ZM187.74171146065848 147.03769931528396C183.6457114606585 143.16569931528397 181.43771146065848 137.86969931528398 181.11771146065848 131.14969931528398L181.02171146065848 126.92569931528396L181.11771146065848 122.70169931528397C181.43771146065848 116.04569931528397 183.6777114606585 110.76569931528397 187.83771146065848 106.86169931528397C191.99771146065848 102.95769931528397 197.7577114606585 101.00569931528398 205.11771146065848 101.00569931528398C212.4777114606585 101.00569931528398 218.2377114606585 102.95769931528397 222.39771146065848 106.86169931528397C226.55771146065848 110.76569931528397 228.7977114606585 116.04569931528397 229.11771146065848 122.70169931528397C229.18171146065848 123.46969931528398 229.2137114606585 124.87769931528398 229.2137114606585 126.92569931528396C229.2137114606585 128.97369931528397 229.18171146065848 130.38169931528398 229.11771146065848 131.14969931528398C228.7977114606585 137.86969931528398 226.5897114606585 143.16569931528397 222.4937114606585 147.03769931528396C218.39771146065848 150.90969931528397 212.60571146065848 152.84569931528398 205.11771146065848 152.84569931528398C197.62971146065848 152.84569931528398 191.83771146065848 150.90969931528397 187.74171146065848 147.03769931528396ZM212.9897114606585 140.12569931528398C214.8457114606585 137.98169931528398 215.8697114606585 134.82969931528396 216.06171146065847 130.66969931528396C216.1257114606585 130.02969931528398 216.15771146065848 128.78169931528396 216.15771146065848 126.92569931528396C216.15771146065848 125.06969931528397 216.1257114606585 123.82169931528398 216.06171146065847 123.18169931528396C215.8697114606585 119.02169931528397 214.8457114606585 115.86969931528398 212.9897114606585 113.72569931528398C211.13371146065847 111.58169931528397 208.50971146065848 110.50969931528397 205.11771146065848 110.50969931528397C201.7257114606585 110.50969931528397 199.1017114606585 111.58169931528397 197.2457114606585 113.72569931528398C195.38971146065848 115.86969931528398 194.36571146065847 119.02169931528397 194.1737114606585 123.18169931528396L194.0777114606585 126.92569931528396L194.1737114606585 130.66969931528396C194.36571146065847 134.82969931528396 195.38971146065848 137.98169931528398 197.2457114606585 140.12569931528398C199.1017114606585 142.26969931528396 201.7257114606585 143.34169931528396 205.11771146065848 143.34169931528396C208.50971146065848 143.34169931528396 211.13371146065847 142.26969931528396 212.9897114606585 140.12569931528398ZM240.5417114606585 151.21369931528398C240.09371146065848 150.76569931528397 239.8697114606585 150.22169931528398 239.8697114606585 149.58169931528397L239.8697114606585 104.36569931528396C239.8697114606585 103.72569931528398 240.09371146065848 103.16569931528397 240.5417114606585 102.68569931528397C240.9897114606585 102.20569931528397 241.53371146065848 101.96569931528397 242.1737114606585 101.96569931528397L249.94971146065848 101.96569931528397C250.65371146065849 101.96569931528397 251.22971146065848 102.18969931528397 251.6777114606585 102.63769931528398C252.1257114606585 103.08569931528397 252.34971146065848 103.66169931528398 252.34971146065848 104.36569931528396L252.34971146065848 108.30169931528397C253.88571146065848 106.25369931528397 255.8217114606585 104.68569931528397 258.15771146065845 103.59769931528398C260.49371146065846 102.50969931528397 263.1657114606585 101.96569931528397 266.1737114606585 101.96569931528397L270.10971146065845 101.96569931528397C270.8137114606585 101.96569931528397 271.37371146065846 102.17369931528397 271.7897114606585 102.58969931528398C272.20571146065845 103.00569931528398 272.4137114606585 103.56569931528398 272.4137114606585 104.26969931528397L272.4137114606585 111.18169931528396C272.4137114606585 111.82169931528398 272.20571146065845 112.36569931528396 271.7897114606585 112.81369931528397C271.37371146065846 113.26169931528398 270.8137114606585 113.48569931528397 270.10971146065845 113.48569931528397L262.6217114606585 113.48569931528397C259.61371146065846 113.48569931528397 257.2457114606585 114.34969931528397 255.5177114606585 116.07769931528398C253.78971146065848 117.80569931528397 252.92571146065848 120.17369931528397 252.92571146065848 123.18169931528396L252.92571146065848 149.58169931528397C252.92571146065848 150.22169931528398 252.7017114606585 150.76569931528397 252.25371146065848 151.21369931528398C251.8057114606585 151.66169931528398 251.22971146065848 151.88569931528397 250.5257114606585 151.88569931528397L242.1737114606585 151.88569931528397C241.53371146065848 151.88569931528397 240.9897114606585 151.66169931528398 240.5417114606585 151.21369931528398ZM283.7897114606585 146.65369931528397C279.5977114606585 142.525699315284 277.37371146065846 136.71769931528397 277.1177114606585 129.22969931528397L277.0217114606585 126.82969931528397L277.1177114606585 124.42969931528397C277.4377114606585 117.13369931528396 279.6937114606585 111.40569931528398 283.8857114606585 107.24569931528397C288.0777114606585 103.08569931528397 293.6937114606585 101.00569931528398 300.73371146065847 101.00569931528398C308.2857114606585 101.00569931528398 314.1257114606585 103.30969931528398 318.25371146065845 107.91769931528397C322.3817114606585 112.52569931528397 324.44571146065846 118.66969931528396 324.44571146065846 126.34969931528397L324.44571146065846 128.36569931528396C324.44571146065846 129.00569931528398 324.2217114606585 129.549699315284 323.77371146065843 129.99769931528397C323.32571146065845 130.44569931528397 322.74971146065843 130.66969931528396 322.0457114606585 130.66969931528396L290.1737114606585 130.66969931528396L290.1737114606585 131.43769931528396C290.30171146065845 134.95769931528397 291.27771146065845 137.91769931528398 293.1017114606585 140.31769931528396C294.9257114606585 142.71769931528397 297.4377114606585 143.91769931528398 300.63771146065847 143.91769931528398C304.4137114606585 143.91769931528398 307.4537114606585 142.44569931528397 309.75771146065847 139.501699315284C310.3337114606585 138.79769931528398 310.7977114606585 138.34969931528397 311.1497114606585 138.15769931528396C311.5017114606585 137.96569931528398 312.0297114606585 137.86969931528398 312.73371146065847 137.86969931528398L320.98971146065844 137.86969931528398C321.56571146065846 137.86969931528398 322.06171146065844 138.04569931528397 322.4777114606585 138.39769931528397C322.89371146065844 138.74969931528398 323.1017114606585 139.18169931528396 323.1017114606585 139.69369931528396C323.1017114606585 141.22969931528397 322.1897114606585 143.03769931528396 320.36571146065853 145.11769931528397C318.54171146065846 147.19769931528398 315.9337114606585 149.00569931528398 312.54171146065846 150.54169931528398C309.1497114606585 152.07769931528398 305.2137114606585 152.84569931528398 300.73371146065847 152.84569931528398C293.6297114606585 152.84569931528398 287.9817114606585 150.78169931528396 283.7897114606585 146.65369931528397ZM311.3897114606585 122.60569931528397L311.3897114606585 122.31769931528397C311.3897114606585 118.54169931528398 310.44571146065846 115.50169931528397 308.5577114606585 113.19769931528397C306.6697114606585 110.89369931528398 304.06171146065844 109.74169931528397 300.73371146065847 109.74169931528397C297.4057114606585 109.74169931528397 294.8137114606585 110.89369931528398 292.9577114606585 113.19769931528397C291.1017114606585 115.50169931528397 290.1737114606585 118.54169931528398 290.1737114606585 122.31769931528397L290.1737114606585 122.60569931528397L311.3897114606585 122.60569931528397Z "></path></g></g></g></svg>